<svg width="24" height="24" viewBox="0 0 24 24" fill="none" xmlns="http://www.w3.org/2000/svg">
<path d="M8.22949 15.142V3.83087L9.48628 4.45927L10.7431 3.83087L11.9975 4.45927L13.2688 3.83087L14.5134 4.45927L15.762 3.83087L17.016 4.45927L18.2838 3.83087L19.541 4.45927L20.7974 3.83087V12.6284" stroke="#18CFE8" stroke-width="1.25679" stroke-linejoin="round"/>
<path d="M20.7972 12.6284V17.0272C20.7972 17.8605 20.4662 18.6597 19.8769 19.2489C19.2877 19.8381 18.4885 20.1691 17.6552 20.1691V20.1691C16.8219 20.1691 16.0228 19.8381 15.4335 19.2489C14.8443 18.6597 14.5133 17.8605 14.5133 17.0272V15.142H3.83057C3.74784 15.1413 3.6658 15.157 3.58923 15.1883C3.51265 15.2197 3.44309 15.2659 3.38459 15.3244C3.32609 15.3829 3.27983 15.4525 3.24851 15.529C3.21719 15.6056 3.20144 15.6877 3.20217 15.7704C3.20217 18.284 3.46688 20.1691 6.34414 20.1691H17.6552" stroke="#18CFE8" stroke-width="1.25679" stroke-linejoin="round"/>
<path d="M13.2567 10.7432H18.2839M10.7432 7.60126H18.2839H10.7432Z" stroke="#18CFE8" stroke-width="1.25679" stroke-linecap="round" stroke-linejoin="round"/>
</svg>
