<svg width="24" height="20" viewBox="0 0 24 20" fill="none" xmlns="http://www.w3.org/2000/svg">
<path d="M15.6055 13.5975L11.6055 9.59753L7.60547 13.5975" stroke="#523BB1" stroke-width="1.2" stroke-linecap="round" stroke-linejoin="round"/>
<path d="M11.6055 9.59753V18.5975" stroke="#523BB1" stroke-width="1.2" stroke-linecap="round" stroke-linejoin="round"/>
<path d="M19.9954 15.9875C20.9708 15.4558 21.7413 14.6144 22.1853 13.5961C22.6293 12.5779 22.7216 11.4407 22.4476 10.3642C22.1736 9.28767 21.5489 8.33303 20.6721 7.65096C19.7953 6.9689 18.7163 6.59825 17.6054 6.59752H16.3454C16.0427 5.42676 15.4786 4.33985 14.6954 3.41851C13.9122 2.49717 12.9303 1.76537 11.8235 1.27813C10.7168 0.790883 9.51398 0.560877 8.30555 0.605401C7.09711 0.649924 5.9145 0.967818 4.84661 1.53518C3.77872 2.10255 2.85334 2.90462 2.14005 3.8811C1.42676 4.85758 0.944119 5.98305 0.728409 7.17291C0.512699 8.36277 0.569534 9.58605 0.894642 10.7508C1.21975 11.9155 1.80467 12.9914 2.60543 13.8975" stroke="#523BB1" stroke-width="1.2" stroke-linecap="round" stroke-linejoin="round"/>
<path d="M15.6055 13.5975L11.6055 9.59753L7.60547 13.5975" stroke="#523BB1" stroke-width="1.2" stroke-linecap="round" stroke-linejoin="round"/>
</svg>
